<?xml version="1.0" encoding="UTF-8" standalone="no"?>
<!-- Created with Inkscape (http://www.inkscape.org/) -->

<svg
   xmlns:dc="http://purl.org/dc/elements/1.1/"
   xmlns:cc="http://creativecommons.org/ns#"
   xmlns:rdf="http://www.w3.org/1999/02/22-rdf-syntax-ns#"
   xmlns:svg="http://www.w3.org/2000/svg"
   xmlns="http://www.w3.org/2000/svg"
   version="1.1"
   width="1000"
   height="1000"
   id="svg2">
  <defs
     id="defs4" />
  <metadata
     id="metadata7">
    <rdf:RDF>
      <cc:Work
         rdf:about="">
        <dc:format>image/svg+xml</dc:format>
        <dc:type
           rdf:resource="http://purl.org/dc/dcmitype/StillImage" />
        <dc:title></dc:title>
      </cc:Work>
    </rdf:RDF>
  </metadata>
  <g
     transform="translate(0,-52.362183)"
     id="layer1">
    <text
       x="211.42857"
       y="594.28571"
       transform="translate(0,52.362183)"
       id="text3037"
       xml:space="preserve"
       style="font-size:64px;font-style:normal;font-variant:normal;font-weight:normal;font-stretch:normal;text-align:start;line-height:125%;letter-spacing:0px;word-spacing:0px;writing-mode:lr-tb;text-anchor:start;fill:#000000;fill-opacity:1;stroke:none;font-family:Sans;-inkscape-font-specification:Terminus"><tspan
         x="211.42857"
         y="594.28571"
         id="tspan3039" /></text>
    <g
       id="g3104">
      <g
         transform="translate(154.28549,-100.00001)"
         id="text3025"
         style="font-size:64px;font-style:normal;font-variant:normal;font-weight:normal;font-stretch:normal;text-align:start;line-height:125%;letter-spacing:0px;word-spacing:0px;writing-mode:lr-tb;text-anchor:start;fill:#000000;fill-opacity:1;stroke:none;font-family:Sans;-inkscape-font-specification:Terminus" />
      <g
         transform="translate(20.499906,-170.49494)"
         id="text3029"
         style="font-size:64px;font-style:normal;font-variant:normal;font-weight:normal;font-stretch:normal;text-align:start;line-height:125%;letter-spacing:0px;word-spacing:0px;writing-mode:lr-tb;text-anchor:start;fill:#000000;fill-opacity:1;stroke:none;font-family:Sans;-inkscape-font-specification:Terminus" />
      <g
         transform="translate(42.85709,-276.20926)"
         id="text3033"
         style="font-size:64px;font-style:normal;font-variant:normal;font-weight:normal;font-stretch:normal;text-align:start;line-height:125%;letter-spacing:0px;word-spacing:0px;writing-mode:lr-tb;text-anchor:start;fill:#000000;fill-opacity:1;stroke:none;font-family:Sans;-inkscape-font-specification:Terminus" />
      <g
         transform="translate(-14.285877,-247.6378)"
         id="text3041"
         style="font-size:64px;font-style:normal;font-variant:normal;font-weight:normal;font-stretch:normal;text-align:start;line-height:125%;letter-spacing:0px;word-spacing:0px;writing-mode:lr-tb;text-anchor:start;fill:#000000;fill-opacity:1;stroke:none;font-family:Sans;-inkscape-font-specification:Terminus" />
      <g
         transform="translate(42.857007,-347.6378)"
         id="text3045"
         style="font-size:64px;font-style:normal;font-variant:normal;font-weight:normal;font-stretch:normal;text-align:start;line-height:125%;letter-spacing:0px;word-spacing:0px;writing-mode:lr-tb;text-anchor:start;fill:#000000;fill-opacity:1;stroke:none;font-family:Sans;-inkscape-font-specification:Terminus" />
      <g
         transform="translate(-237.14283,137.14285)"
         id="text3049"
         style="font-size:64px;font-style:normal;font-variant:normal;font-weight:normal;font-stretch:normal;text-align:start;line-height:125%;letter-spacing:0px;word-spacing:0px;writing-mode:lr-tb;text-anchor:start;fill:#000000;fill-opacity:1;stroke:none;font-family:Sans;-inkscape-font-specification:Terminus" />
      <g
         id="text3381"
         style="font-size:64px;font-style:normal;font-variant:normal;font-weight:normal;font-stretch:normal;text-align:start;line-height:125%;letter-spacing:0px;word-spacing:0px;writing-mode:lr-tb;text-anchor:start;fill:#000000;fill-opacity:1;stroke:none;font-family:Sans;-inkscape-font-specification:Terminus" />
      <g
         id="text3385"
         style="font-size:64px;font-style:normal;font-variant:normal;font-weight:normal;font-stretch:normal;text-align:start;line-height:125%;letter-spacing:0px;word-spacing:0px;writing-mode:lr-tb;text-anchor:start;fill:#000000;fill-opacity:1;stroke:none;font-family:Sans;-inkscape-font-specification:Terminus" />
      <g
         id="text3922"
         style="font-size:64px;font-style:normal;font-variant:normal;font-weight:normal;font-stretch:normal;text-align:start;line-height:125%;letter-spacing:0px;word-spacing:0px;writing-mode:lr-tb;text-anchor:start;fill:#000000;fill-opacity:1;stroke:none;font-family:Sans;-inkscape-font-specification:Terminus" />
      <g
         id="text3926"
         style="font-size:64px;font-style:normal;font-variant:normal;font-weight:normal;font-stretch:normal;text-align:start;line-height:125%;letter-spacing:0px;word-spacing:0px;writing-mode:lr-tb;text-anchor:start;fill:#000000;fill-opacity:1;stroke:none;font-family:Sans;-inkscape-font-specification:Terminus" />
      <g
         id="text4062"
         style="font-size:64px;font-style:normal;font-variant:normal;font-weight:normal;font-stretch:normal;text-align:start;line-height:125%;letter-spacing:0px;word-spacing:0px;writing-mode:lr-tb;text-anchor:start;fill:#000000;fill-opacity:1;stroke:none;font-family:Sans;-inkscape-font-specification:Terminus" />
      <g
         id="text4066"
         style="font-size:64px;font-style:normal;font-variant:normal;font-weight:normal;font-stretch:normal;text-align:start;line-height:125%;letter-spacing:0px;word-spacing:0px;writing-mode:lr-tb;text-anchor:start;fill:#000000;fill-opacity:1;stroke:none;font-family:Sans;-inkscape-font-specification:Terminus" />
      <g
         id="text3066"
         style="font-size:64px;font-style:normal;font-variant:normal;font-weight:normal;font-stretch:normal;text-align:start;line-height:125%;letter-spacing:0px;word-spacing:0px;writing-mode:lr-tb;text-anchor:start;fill:#000000;fill-opacity:1;stroke:none;font-family:Sans;-inkscape-font-specification:Terminus" />
      <g
         id="text3070"
         style="font-size:64px;font-style:normal;font-variant:normal;font-weight:normal;font-stretch:normal;text-align:start;line-height:125%;letter-spacing:0px;word-spacing:0px;writing-mode:lr-tb;text-anchor:start;fill:#000000;fill-opacity:1;stroke:none;font-family:Sans;-inkscape-font-specification:Terminus" />
      <g
         id="text3074"
         style="font-size:64px;font-style:normal;font-variant:normal;font-weight:normal;font-stretch:normal;text-align:start;line-height:125%;letter-spacing:0px;word-spacing:0px;writing-mode:lr-tb;text-anchor:start;fill:#000000;fill-opacity:1;stroke:none;font-family:Sans;-inkscape-font-specification:Terminus" />
      <g
         id="text3078"
         style="font-size:64px;font-style:normal;font-variant:normal;font-weight:normal;font-stretch:normal;text-align:start;line-height:125%;letter-spacing:0px;word-spacing:0px;writing-mode:lr-tb;text-anchor:start;fill:#000000;fill-opacity:1;stroke:none;font-family:Sans;-inkscape-font-specification:Terminus" />
      <path
         d="m -459.80567,875.16476 -10.048,0 0,-4.032 c 4.35199,-0.55463 7.18932,-1.32263 8.512,-2.304 1.32265,-0.9813 2.47465,-3.2213 3.456,-6.72 l 3.712,0 0,45.376 -5.632,0 0,-32.32 m 52.329,-13.056 0,4.736 c -5.12003,6.8267 -9.17336,13.50402 -12.16,20.032 -2.94402,6.48534 -5.03469,13.35467 -6.272,20.608 l -6.016,0 c 1.70665,-7.46666 3.88265,-14.03732 6.528,-19.712 2.64531,-5.67465 6.67731,-12.37331 12.096,-20.096 l -24.512,0 0,-5.568 30.336,0"
         id="path3151"
         style="font-size:64px;font-style:normal;font-variant:normal;font-weight:normal;font-stretch:normal;text-align:start;line-height:125%;letter-spacing:0px;word-spacing:0px;writing-mode:lr-tb;text-anchor:start;fill:#000000;fill-opacity:1;stroke:none;font-family:FreeSans;-inkscape-font-specification:FreeSans" />
      <path
         d="m -654.15847,919.31508 10.3125,0 0,-35.59375 -11.21875,2.25 0,-5.75 11.15625,-2.25 6.3125,0 0,41.34375 10.3125,0 0,5.3125 -26.875,0 0,-5.3125 m 66.46875,-40.3125 0,5.75 c -1.58336,-0.74996 -3.18753,-1.32288 -4.8125,-1.71875 -1.60419,-0.39579 -3.19794,-0.59371 -4.78125,-0.59375 -4.16668,4e-5 -7.35418,1.40629 -9.5625,4.21875 -2.18751,2.81253 -3.43751,7.06253 -3.75,12.75 1.22916,-1.81247 2.77082,-3.19789 4.625,-4.15625 1.85415,-0.97914 3.89582,-1.46872 6.125,-1.46875 4.68748,3e-5 8.38539,1.42711 11.09375,4.28125 2.72913,2.83336 4.09372,6.69793 4.09375,11.59375 -3e-5,4.79168 -1.4167,8.63542 -4.25,11.53125 -2.83336,2.89583 -6.60419,4.34375 -11.3125,4.34375 -5.39585,0 -9.52084,-2.0625 -12.375,-6.1875 -2.85417,-4.14583 -4.28125,-10.14582 -4.28125,-18 0,-7.37497 1.75,-13.24997 5.25,-17.625 3.49999,-4.39579 8.1979,-6.5937 14.09375,-6.59375 1.58331,5e-5 3.17706,0.1563 4.78125,0.46875 1.62497,0.31254 3.31247,0.78129 5.0625,1.40625 m -12.53125,19.78125 c -2.83335,2e-5 -5.08335,0.96877 -6.75,2.90625 -1.64584,1.93752 -2.46876,4.59377 -2.46875,7.96875 -1e-5,3.35418 0.82291,6.01042 2.46875,7.96875 1.66665,1.9375 3.91665,2.90625 6.75,2.90625 2.83331,0 5.07289,-0.96875 6.71875,-2.90625 1.66664,-1.95833 2.49997,-4.61457 2.5,-7.96875 -3e-5,-3.37498 -0.83336,-6.03123 -2.5,-7.96875 -1.64586,-1.93748 -3.88544,-2.90623 -6.71875,-2.90625"
         id="path3145"
         style="font-size:64px;font-style:normal;font-variant:normal;font-weight:normal;font-stretch:normal;text-align:start;line-height:125%;letter-spacing:0px;word-spacing:0px;writing-mode:lr-tb;text-anchor:start;fill:#000000;fill-opacity:1;stroke:none;font-family:FreeSans;-inkscape-font-specification:FreeSans" />
      <path
         d="m -528.4442,805.02931 10.3125,0 0,-35.59375 -11.21875,2.25 0,-5.75 11.15625,-2.25 6.3125,0 0,41.34375 10.3125,0 0,5.3125 -26.875,0 0,-5.3125 m 39.71875,-41.34375 24.78125,0 0,5.3125 -19,0 0,11.4375 c 0.91665,-0.31247 1.83332,-0.54163 2.75,-0.6875 0.91665,-0.16663 1.83331,-0.24997 2.75,-0.25 5.20831,3e-5 9.3333,1.42711 12.375,4.28125 3.04163,2.85419 4.56246,6.71877 4.5625,11.59375 -4e-5,5.02084 -1.56254,8.92709 -4.6875,11.71875 -3.12503,2.77084 -7.53128,4.15625 -13.21875,4.15625 -1.95835,0 -3.95835,-0.16667 -6,-0.5 -2.02085,-0.33333 -4.11459,-0.83333 -6.28125,-1.5 l 0,-6.34375 c 1.87499,1.02084 3.81249,1.78126 5.8125,2.28125 1.99998,0.50001 4.11457,0.75001 6.34375,0.75 3.60414,10e-6 6.45831,-0.94791 8.5625,-2.84375 2.10414,-1.89582 3.15622,-4.46874 3.15625,-7.71875 -3e-5,-3.24998 -1.05211,-5.82289 -3.15625,-7.71875 -2.10419,-1.89581 -4.95836,-2.84372 -8.5625,-2.84375 -1.68752,3e-5 -3.37502,0.18753 -5.0625,0.5625 -1.66668,0.37503 -3.37501,0.95836 -5.125,1.75 l 0,-23.4375"
         id="path3141"
         style="font-size:64px;font-style:normal;font-variant:normal;font-weight:normal;font-stretch:normal;text-align:start;line-height:125%;letter-spacing:0px;word-spacing:0px;writing-mode:lr-tb;text-anchor:start;fill:#000000;fill-opacity:1;stroke:none;font-family:FreeSans;-inkscape-font-specification:FreeSans" />
      <path
         d="m -531.30132,725.02931 10.3125,0 0,-35.59375 -11.21875,2.25 0,-5.75 11.15625,-2.25 6.3125,0 0,41.34375 10.3125,0 0,5.3125 -26.875,0 0,-5.3125 m 55.34375,-41.34375 7.9375,0 0,30.40625 6.65625,0 0,5.25 -6.65625,0 0,11 -6.28125,0 0,-11 -21.0625,0 0,-6.09375 19.40625,-29.5625 m 1.65625,5.5 -15.9375,24.90625 15.9375,0 0,-24.90625"
         id="path3135"
         style="font-size:64px;font-style:normal;font-variant:normal;font-weight:normal;font-stretch:normal;text-align:start;line-height:125%;letter-spacing:0px;word-spacing:0px;writing-mode:lr-tb;text-anchor:start;fill:#000000;fill-opacity:1;stroke:none;font-family:FreeSans;-inkscape-font-specification:FreeSans" />
      <path
         d="m -528.44423,659.31508 10.3125,0 0,-35.59375 -11.21875,2.25 0,-5.75 11.15625,-2.25 6.3125,0 0,41.34375 10.3125,0 0,5.3125 -26.875,0 0,-5.3125 m 58.78125,-19.84375 c 3.0208,0.64586 5.37496,1.9896 7.0625,4.03125 1.70829,2.04168 2.56246,4.56251 2.5625,7.5625 -4e-5,4.60417 -1.58337,8.16667 -4.75,10.6875 -3.1667,2.52083 -7.66669,3.78125 -13.5,3.78125 -1.95835,0 -3.97918,-0.19792 -6.0625,-0.59375 -2.06251,-0.375 -4.19793,-0.94792 -6.40625,-1.71875 l 0,-6.09375 c 1.74999,1.02084 3.66665,1.79167 5.75,2.3125 2.08332,0.52084 4.2604,0.78125 6.53125,0.78125 3.95831,0 6.96872,-0.78125 9.03125,-2.34375 2.0833,-1.56249 3.12497,-3.83332 3.125,-6.8125 -3e-5,-2.74999 -0.96878,-4.89582 -2.90625,-6.4375 -1.91669,-1.56248 -4.59378,-2.34373 -8.03125,-2.34375 l -5.4375,0 0,-5.1875 5.6875,0 c 3.10414,3e-5 5.47914,-0.61456 7.125,-1.84375 1.6458,-1.24997 2.46872,-3.04164 2.46875,-5.375 -3e-5,-2.3958 -0.8542,-4.22913 -2.5625,-5.5 -1.68753,-1.29163 -4.11461,-1.93746 -7.28125,-1.9375 -1.72919,4e-5 -3.58335,0.18754 -5.5625,0.5625 -1.97918,0.37504 -4.15626,0.95837 -6.53125,1.75 l 0,-5.625 c 2.39582,-0.66662 4.6354,-1.16662 6.71875,-1.5 2.10415,-0.33329 4.08331,-0.49995 5.9375,-0.5 4.79164,5e-5 8.5833,1.09379 11.375,3.28125 2.79163,2.16671 4.18746,5.1042 4.1875,8.8125 -4e-5,2.58336 -0.73962,4.77086 -2.21875,6.5625 -1.4792,1.77086 -3.58337,3.00002 -6.3125,3.6875"
         id="path3131"
         style="font-size:64px;font-style:normal;font-variant:normal;font-weight:normal;font-stretch:normal;text-align:start;line-height:125%;letter-spacing:0px;word-spacing:0px;writing-mode:lr-tb;text-anchor:start;fill:#000000;fill-opacity:1;stroke:none;font-family:FreeSans;-inkscape-font-specification:FreeSans" />
      <path
         d="m -517.01568,565.02937 10.3125,0 0,-35.59375 -11.21875,2.25 0,-5.75 11.15625,-2.25 6.3125,0 0,41.34375 10.3125,0 0,5.3125 -26.875,0 0,-5.3125 m 45.09375,0 22.03125,0 0,5.3125 -29.625,0 0,-5.3125 c 2.39583,-2.47916 5.65624,-5.80207 9.78125,-9.96875 4.14582,-4.18748 6.74998,-6.88539 7.8125,-8.09375 2.02081,-2.27081 3.42706,-4.18747 4.21875,-5.75 0.81248,-1.5833 1.21873,-3.13538 1.21875,-4.65625 -2e-5,-2.47913 -0.87502,-4.49996 -2.625,-6.0625 -1.72919,-1.56246 -3.9896,-2.34371 -6.78125,-2.34375 -1.97918,4e-5 -4.07293,0.34379 -6.28125,1.03125 -2.18751,0.68754 -4.53125,1.72921 -7.03125,3.125 l 0,-6.375 c 2.54166,-1.02079 4.91666,-1.79162 7.125,-2.3125 2.20832,-0.52078 4.22915,-0.7812 6.0625,-0.78125 4.83331,5e-5 8.68748,1.20838 11.5625,3.625 2.87497,2.41671 4.31247,5.64587 4.3125,9.6875 -3e-5,1.9167 -0.36461,3.73962 -1.09375,5.46875 -0.70836,1.70836 -2.01044,3.72919 -3.90625,6.0625 -0.52086,0.60419 -2.17711,2.35419 -4.96875,5.25 -2.79168,2.87502 -6.72918,6.90626 -11.8125,12.09375"
         id="path3127"
         style="font-size:64px;font-style:normal;font-variant:normal;font-weight:normal;font-stretch:normal;text-align:start;line-height:125%;letter-spacing:0px;word-spacing:0px;writing-mode:lr-tb;text-anchor:start;fill:#000000;fill-opacity:1;stroke:none;font-family:FreeSans;-inkscape-font-specification:FreeSans" />
      <path
         d="m -682.73003,727.88643 10.3125,0 0,-35.59375 -11.21875,2.25 0,-5.75 11.15625,-2.25 6.3125,0 0,41.34375 10.3125,0 0,5.3125 -26.875,0 0,-5.3125 m 40.75,0 10.3125,0 0,-35.59375 -11.21875,2.25 0,-5.75 11.15625,-2.25 6.3125,0 0,41.34375 10.3125,0 0,5.3125 -26.875,0 0,-5.3125"
         id="path3123"
         style="font-size:64px;font-style:normal;font-variant:normal;font-weight:normal;font-stretch:normal;text-align:start;line-height:125%;letter-spacing:0px;word-spacing:0px;writing-mode:lr-tb;text-anchor:start;fill:#000000;fill-opacity:1;stroke:none;font-family:FreeSans;-inkscape-font-specification:FreeSans" />
      <path
         d="m -222.72985,545.02919 10.3125,0 0,-35.59375 -11.21875,2.25 0,-5.75 11.15625,-2.25 6.3125,0 0,41.34375 10.3125,0 0,5.3125 -26.875,0 0,-5.3125 m 53.15625,-42.1875 c 5.22914,5e-5 9.21872,2.07296 11.96875,6.21875 2.7708,4.12504 4.15622,10.12503 4.15625,18 -3e-5,7.85418 -1.38545,13.85418 -4.15625,18 -2.75003,4.125 -6.73961,6.1875 -11.96875,6.1875 -5.22918,0 -9.22918,-2.0625 -12,-6.1875 -2.75,-4.14582 -4.125,-10.14582 -4.125,-18 0,-7.87497 1.375,-13.87496 4.125,-18 2.77082,-4.14579 6.77082,-6.2187 12,-6.21875 m 0,5 c -3.25001,4e-5 -5.69793,1.60421 -7.34375,4.8125 -1.62501,3.18753 -2.43751,7.98961 -2.4375,14.40625 -1e-5,6.39585 0.81249,11.19793 2.4375,14.40625 1.64582,3.18751 4.09374,4.78125 7.34375,4.78125 3.27081,0 5.71873,-1.59374 7.34375,-4.78125 1.64581,-3.20832 2.46872,-8.0104 2.46875,-14.40625 -3e-5,-6.41664 -0.82294,-11.21872 -2.46875,-14.40625 -1.62502,-3.20829 -4.07294,-4.81246 -7.34375,-4.8125"
         id="path3117"
         style="font-size:64px;font-style:normal;font-variant:normal;font-weight:normal;font-stretch:normal;text-align:start;line-height:125%;letter-spacing:0px;word-spacing:0px;writing-mode:lr-tb;text-anchor:start;fill:#000000;fill-opacity:1;stroke:none;font-family:FreeSans;-inkscape-font-specification:FreeSans" />
      <path
         d="m -693.93056,589.59175 c 2.83331,2e-5 5.07289,-0.96873 6.71875,-2.90625 1.66664,-1.93747 2.49997,-4.59372 2.5,-7.96875 -3e-5,-3.35413 -0.83336,-5.99996 -2.5,-7.9375 -1.64586,-1.95829 -3.88544,-2.93746 -6.71875,-2.9375 -2.83335,4e-5 -5.08335,0.97921 -6.75,2.9375 -1.64585,1.93754 -2.46876,4.58337 -2.46875,7.9375 -10e-6,3.37503 0.8229,6.03128 2.46875,7.96875 1.66665,1.93752 3.91665,2.90627 6.75,2.90625 m -12.5625,19.78125 0,-5.75 c 1.58332,0.75001 3.18749,1.32292 4.8125,1.71875 1.62498,0.39584 3.21873,0.59375 4.78125,0.59375 4.16664,0 7.34372,-1.39583 9.53125,-4.1875 2.2083,-2.81249 3.46872,-7.0729 3.78125,-12.78125 -1.20836,1.79169 -2.73961,3.16669 -4.59375,4.125 -1.85419,0.95835 -3.90627,1.43752 -6.15625,1.4375 -4.66668,2e-5 -8.3646,-1.40623 -11.09375,-4.21875 -2.70834,-2.83331 -4.06251,-6.69789 -4.0625,-11.59375 -10e-6,-4.79163 1.41666,-8.63538 4.25,-11.53125 2.83332,-2.89579 6.60415,-4.3437 11.3125,-4.34375 5.39581,5e-5 9.51039,2.07296 12.34375,6.21875 2.85413,4.12504 4.28121,10.12503 4.28125,18 -4e-5,7.35418 -1.75004,13.22918 -5.25,17.625 -3.4792,4.375 -8.16669,6.5625 -14.0625,6.5625 -1.58335,0 -3.18752,-0.15625 -4.8125,-0.46875 -1.62501,-0.3125 -3.31251,-0.78125 -5.0625,-1.40625"
         id="path3113"
         style="font-size:64px;font-style:normal;font-variant:normal;font-weight:normal;font-stretch:normal;text-align:start;line-height:125%;letter-spacing:0px;word-spacing:0px;writing-mode:lr-tb;text-anchor:start;fill:#000000;fill-opacity:1;stroke:none;font-family:FreeSans;-inkscape-font-specification:FreeSans" />
      <path
         d="m -799.00833,475.38562 c -10e-6,2.4167 0.74999,4.30212 2.25,5.65625 1.52082,1.3542 3.64582,2.03128 6.375,2.03125 2.70831,3e-5 4.8229,-0.67705 6.34375,-2.03125 1.54164,-1.35413 2.31247,-3.23955 2.3125,-5.65625 -3e-5,-2.41663 -0.77086,-4.30204 -2.3125,-5.65625 -1.52085,-1.35412 -3.63544,-2.0312 -6.34375,-2.03125 -2.72918,5e-5 -4.85418,0.67713 -6.375,2.03125 -1.50001,1.35421 -2.25001,3.23962 -2.25,5.65625 m 2.3125,9.96875 c -2.70834,-0.66664 -4.82292,-1.92705 -6.34375,-3.78125 -1.5,-1.85413 -2.25,-4.11455 -2.25,-6.78125 0,-3.72912 1.32291,-6.67704 3.96875,-8.84375 2.66666,-2.16662 6.31249,-3.24995 10.9375,-3.25 4.64581,5e-5 8.29164,1.08338 10.9375,3.25 2.6458,2.16671 3.96872,5.11463 3.96875,8.84375 -3e-5,2.6667 -0.76045,4.92712 -2.28125,6.78125 -1.50003,1.8542 -3.59378,3.11461 -6.28125,3.78125 3.04164,0.70836 5.40622,2.09378 7.09375,4.15625 1.7083,2.06252 2.56247,4.58335 2.5625,7.5625 -3e-5,4.52085 -1.38545,7.98959 -4.15625,10.40625 -2.75003,2.41667 -6.69794,3.625 -11.84375,3.625 -5.14584,0 -9.10417,-1.20833 -11.875,-3.625 -2.75,-2.41666 -4.125,-5.8854 -4.125,-10.40625 0,-2.97915 0.85417,-5.49998 2.5625,-7.5625 1.70833,-2.06247 4.08333,-3.44789 7.125,-4.15625 m 6.3125,2.6875 c -3.00001,3e-5 -5.36459,0.80211 -7.09375,2.40625 -1.70834,1.60419 -2.56251,3.81252 -2.5625,6.625 -10e-6,2.81251 0.85416,5.02085 2.5625,6.625 1.72916,1.60418 4.09374,2.40626 7.09375,2.40625 2.99998,10e-6 5.36456,-0.80207 7.09375,-2.40625 1.72914,-1.62499 2.59372,-3.83332 2.59375,-6.625 -3e-5,-2.81248 -0.86461,-5.02081 -2.59375,-6.625 -1.70836,-1.60414 -4.07294,-2.40622 -7.09375,-2.40625"
         id="path3107"
         style="font-size:64px;font-style:normal;font-variant:normal;font-weight:normal;font-stretch:normal;text-align:start;line-height:125%;letter-spacing:0px;word-spacing:0px;writing-mode:lr-tb;text-anchor:start;fill:#000000;fill-opacity:1;stroke:none;font-family:FreeSans;-inkscape-font-specification:FreeSans" />
      <path
         d="m -476.84609,229.39983 30,0 0,2.6875 -16.9375,43.96875 -6.59375,0 15.9375,-41.34375 -22.40625,0 0,-5.3125"
         id="path3105"
         style="font-size:64px;font-style:normal;font-variant:normal;font-weight:normal;font-stretch:normal;text-align:start;line-height:125%;letter-spacing:0px;word-spacing:0px;writing-mode:lr-tb;text-anchor:start;fill:#000000;fill-opacity:1;stroke:none;font-family:FreeSans;-inkscape-font-specification:FreeSans" />
      <path
         d="m -591.29687,261.85972 0,5.75 c -1.58337,-0.74996 -3.18753,-1.32287 -4.8125,-1.71875 -1.6042,-0.39579 -3.19794,-0.59371 -4.78125,-0.59375 -4.16669,4e-5 -7.35419,1.40629 -9.5625,4.21875 -2.18751,2.81254 -3.43751,7.06253 -3.75,12.75 1.22915,-1.81247 2.77082,-3.19789 4.625,-4.15625 1.85415,-0.97913 3.89581,-1.46872 6.125,-1.46875 4.68747,3e-5 8.38538,1.42712 11.09375,4.28125 2.72913,2.83336 4.09371,6.69794 4.09375,11.59375 -4e-5,4.79168 -1.4167,8.63543 -4.25,11.53125 -2.83337,2.89584 -6.60419,4.34375 -11.3125,4.34375 -5.39585,0 -9.52085,-2.0625 -12.375,-6.1875 -2.85417,-4.14582 -4.28126,-10.14582 -4.28125,-18 -10e-6,-7.37497 1.74999,-13.24996 5.25,-17.625 3.49998,-4.39579 8.1979,-6.5937 14.09375,-6.59375 1.58331,5e-5 3.17705,0.1563 4.78125,0.46875 1.62497,0.31255 3.31247,0.7813 5.0625,1.40625 m -12.53125,19.78125 c -2.83335,3e-5 -5.08335,0.96878 -6.75,2.90625 -1.64585,1.93752 -2.46876,4.59377 -2.46875,7.96875 -10e-6,3.35418 0.8229,6.01043 2.46875,7.96875 1.66665,1.93751 3.91665,2.90626 6.75,2.90625 2.83331,1e-5 5.07289,-0.96874 6.71875,-2.90625 1.66663,-1.95832 2.49997,-4.61457 2.5,-7.96875 -3e-5,-3.37498 -0.83337,-6.03123 -2.5,-7.96875 -1.64586,-1.93747 -3.88544,-2.90622 -6.71875,-2.90625"
         id="path3101"
         style="font-size:64px;font-style:normal;font-variant:normal;font-weight:normal;font-stretch:normal;text-align:start;line-height:125%;letter-spacing:0px;word-spacing:0px;writing-mode:lr-tb;text-anchor:start;fill:#000000;fill-opacity:1;stroke:none;font-family:FreeSans;-inkscape-font-specification:FreeSans" />
      <path
         d="m -634.92732,432.60368 24.78125,0 0,5.3125 -19,0 0,11.4375 c 0.91665,-0.31247 1.83332,-0.54164 2.75,-0.6875 0.91665,-0.16664 1.83332,-0.24997 2.75,-0.25 5.20831,3e-5 9.33331,1.42711 12.375,4.28125 3.04163,2.85419 4.56246,6.71877 4.5625,11.59375 -4e-5,5.02084 -1.56253,8.92709 -4.6875,11.71875 -3.12503,2.77083 -7.53127,4.15625 -13.21875,4.15625 -1.95835,0 -3.95835,-0.16667 -6,-0.5 -2.02084,-0.33334 -4.11459,-0.83334 -6.28125,-1.5 l 0,-6.34375 c 1.87499,1.02084 3.81249,1.78125 5.8125,2.28125 1.99999,0.5 4.11457,0.75 6.34375,0.75 3.60415,0 6.45831,-0.94791 8.5625,-2.84375 2.10414,-1.89583 3.15622,-4.46874 3.15625,-7.71875 -3e-5,-3.24999 -1.05211,-5.8229 -3.15625,-7.71875 -2.10419,-1.89581 -4.95835,-2.84373 -8.5625,-2.84375 -1.68752,2e-5 -3.37501,0.18752 -5.0625,0.5625 -1.66668,0.37502 -3.37501,0.95835 -5.125,1.75 l 0,-23.4375"
         id="path3099"
         style="font-size:64px;font-style:normal;font-variant:normal;font-weight:normal;font-stretch:normal;text-align:start;line-height:125%;letter-spacing:0px;word-spacing:0px;writing-mode:lr-tb;text-anchor:start;fill:#000000;fill-opacity:1;stroke:none;font-family:FreeSans;-inkscape-font-specification:FreeSans" />
      <path
         d="m -720.9514,310.38032 7.9375,0 0,30.40625 6.65625,0 0,5.25 -6.65625,0 0,11 -6.28125,0 0,-11 -21.0625,0 0,-6.09375 19.40625,-29.5625 m 1.65625,5.5 -15.9375,24.90625 15.9375,0 0,-24.90625"
         id="path3095"
         style="font-size:64px;font-style:normal;font-variant:normal;font-weight:normal;font-stretch:normal;text-align:start;line-height:125%;letter-spacing:0px;word-spacing:0px;writing-mode:lr-tb;text-anchor:start;fill:#000000;fill-opacity:1;stroke:none;font-family:FreeSans;-inkscape-font-specification:FreeSans" />
      <path
         d="m -641.84155,168.04274 c 3.0208,0.64586 5.37497,1.9896 7.0625,4.03125 1.70829,2.04168 2.56246,4.56251 2.5625,7.5625 -4e-5,4.60417 -1.58337,8.16667 -4.75,10.6875 -3.1667,2.52083 -7.66669,3.78125 -13.5,3.78125 -1.95835,0 -3.97918,-0.19792 -6.0625,-0.59375 -2.06251,-0.375 -4.19793,-0.94792 -6.40625,-1.71875 l 0,-6.09375 c 1.74999,1.02084 3.66665,1.79167 5.75,2.3125 2.08332,0.52084 4.2604,0.78125 6.53125,0.78125 3.95831,0 6.96872,-0.78125 9.03125,-2.34375 2.0833,-1.56249 3.12497,-3.83332 3.125,-6.8125 -3e-5,-2.74999 -0.96878,-4.89582 -2.90625,-6.4375 -1.91669,-1.56248 -4.59378,-2.34373 -8.03125,-2.34375 l -5.4375,0 0,-5.1875 5.6875,0 c 3.10414,3e-5 5.47914,-0.61456 7.125,-1.84375 1.6458,-1.24997 2.46872,-3.04164 2.46875,-5.375 -3e-5,-2.3958 -0.8542,-4.22913 -2.5625,-5.5 -1.68753,-1.29163 -4.11461,-1.93746 -7.28125,-1.9375 -1.72919,4e-5 -3.58335,0.18754 -5.5625,0.5625 -1.97918,0.37504 -4.15626,0.95837 -6.53125,1.75 l 0,-5.625 c 2.39582,-0.66662 4.6354,-1.16662 6.71875,-1.5 2.10415,-0.33329 4.08331,-0.49995 5.9375,-0.5 4.79164,5e-5 8.5833,1.09379 11.375,3.28125 2.79163,2.16671 4.18746,5.1042 4.1875,8.8125 -4e-5,2.58336 -0.73962,4.77086 -2.21875,6.5625 -1.4792,1.77086 -3.58337,3.00002 -6.3125,3.6875"
         id="path3093"
         style="font-size:64px;font-style:normal;font-variant:normal;font-weight:normal;font-stretch:normal;text-align:start;line-height:125%;letter-spacing:0px;word-spacing:0px;writing-mode:lr-tb;text-anchor:start;fill:#000000;fill-opacity:1;stroke:none;font-family:FreeSans;-inkscape-font-specification:FreeSans" />
      <path
         d="m -803.60052,262.17225 22.03125,0 0,5.3125 -29.625,0 0,-5.3125 c 2.39582,-2.47916 5.65623,-5.80207 9.78125,-9.96875 4.14581,-4.18748 6.74998,-6.88539 7.8125,-8.09375 2.02081,-2.27081 3.42706,-4.18747 4.21875,-5.75 0.81247,-1.5833 1.21872,-3.13538 1.21875,-4.65625 -3e-5,-2.47913 -0.87503,-4.49996 -2.625,-6.0625 -1.72919,-1.56246 -3.9896,-2.34371 -6.78125,-2.34375 -1.97919,4e-5 -4.07293,0.34379 -6.28125,1.03125 -2.18751,0.68754 -4.53126,1.72921 -7.03125,3.125 l 0,-6.375 c 2.54165,-1.02079 4.91665,-1.79162 7.125,-2.3125 2.20832,-0.52079 4.22915,-0.7812 6.0625,-0.78125 4.83331,5e-5 8.68747,1.20838 11.5625,3.625 2.87497,2.41671 4.31247,5.64587 4.3125,9.6875 -3e-5,1.9167 -0.36462,3.73961 -1.09375,5.46875 -0.70837,1.70836 -2.01045,3.72919 -3.90625,6.0625 -0.52086,0.60419 -2.17711,2.35419 -4.96875,5.25 -2.79169,2.87501 -6.72918,6.90626 -11.8125,12.09375"
         id="path3091"
         style="font-size:64px;font-style:normal;font-variant:normal;font-weight:normal;font-stretch:normal;text-align:start;line-height:125%;letter-spacing:0px;word-spacing:0px;writing-mode:lr-tb;text-anchor:start;fill:#000000;fill-opacity:1;stroke:none;font-family:FreeSans;-inkscape-font-specification:FreeSans" />
      <path
         d="m -568.4444,125.02936 10.3125,0 0,-35.593745 -11.21875,2.25 0,-5.75 11.15625,-2.25 6.3125,0 0,41.343745 10.3125,0 0,5.3125 -26.875,0 0,-5.3125"
         id="path3068"
         style="font-size:64px;font-style:normal;font-variant:normal;font-weight:normal;font-stretch:normal;text-align:start;line-height:125%;letter-spacing:0px;word-spacing:0px;writing-mode:lr-tb;text-anchor:start;fill:#000000;fill-opacity:1;stroke:none;font-family:FreeSans;-inkscape-font-specification:FreeSans" />
    </g>
  </g>
</svg>
